# xmcd CD database file
#
# Track frame offsets:
#	150
#	17673
#	37579
#	54997
#	77183
#	101391
#	114626
#	138215
#	157972
#	172753
#	193103
#	215820
#
# Disc length: 3162 seconds
#
# Revision: 7
# Processed by: cddbd v1.4PL0 Copyright (c) Steve Scherf et al.
# Submitted via: CDex 1.40Release
#
DISCID=8f0c580c
DTITLE=Norah Jones - House of Blues
DYEAR=1900
DGENRE=Blues
TTITLE0=Fortress Europe
TTITLE1=Rise To The Challenge
TTITLE2=La Haine
TTITLE3=1000 Mirrors Featuring Sinead O'Connor
TTITLE4=19 Rebellions
TTITLE5=Blowback
TTITLE6=2 Face
TTITLE7=Power To The Small Massive
TTITLE8=Dhol Rinse
TTITLE9=Basta
TTITLE10=Cyberabad
TTITLE11=Enemy Of The Enemy
EXTD=ID3G: 0
EXTT0=
EXTT1=
EXTT2=
EXTT3=
EXTT4=
EXTT5=
EXTT6=
EXTT7=
EXTT8=
EXTT9=
EXTT10=
EXTT11=
PLAYORDER=
